<svg xmlns="http://www.w3.org/2000/svg" viewBox="0 0 594.26 344.45"><defs><style>.cls-1{fill:#9a9a9a}.cls-2{fill:#171156}.cls-3{fill:#dbdbdb}.cls-4{isolation:isolate}</style></defs><title>Warstwa 1</title><g id="Warstwa_2" data-name="Warstwa 2"><g id="Warstwa_1-2" data-name="Warstwa 1"><path class="cls-1" d="M0 136.39L236.23 0l358 208.07L358 344.45zm592.85 71.68L236.23.82 1.41 136.39 358 343.64l234.85-135.57"/><path class="cls-2" d="M236.23.82l356.62 207.25-234.81 135.57L1.41 136.39 236.23.82z"/><path class="cls-3" d="M99.27 155.48l-1.13.65-9.38-5.26 1.46-.84 9.05 5.45zm-1.97-9.54q6.78-3.91 13-.3 3 1.74 2.94 3.83c0 1.4-1.13 2.72-3.31 4l-3.36 1.93-12.76-7.4zm14 3.65c0-1.09-.77-2.1-2.43-3.07q-5-2.9-10.33.19l-2 1.18 10.21 5.93 2-1.13c1.71-1 2.59-2 2.63-3.1m-23.9 5.47l1.29.75-2.55 5.19.05.03 8.58-1.69 1.28.75-11.54 2.19-.47-.27 3.36-6.95zm14.01 1.58a1.78 1.78 0 0 1 1 .23.57.57 0 0 1 0 1.07 1.86 1.86 0 0 1-1 .25 1.82 1.82 0 0 1-.94-.22c-.27-.16-.41-.35-.4-.56a.66.66 0 0 1 .39-.55 1.79 1.79 0 0 1 .95-.22z"/><g class="cls-4"><path class="cls-3" d="M150 115.52l3.8 7.14 4.74 2.75-1.41.82-4.72-2.74-12.23-2.3 1.62-.94 8.78 1.71c.12 0 .49.11 1.08.27a8.99 8.99 0 0 1-.39-.66l-2.78-5.18zm-10.59 6.11l1.28.75-3.71 2.15 11.5 6.68-1.41.82-11.51-6.69-3.71 2.15-1.29-.75 8.85-5.11zM126 129.12a12.75 12.75 0 0 1 3.55-1.44l1.52.88a11.16 11.16 0 0 0-3.82 1.33q-2.3 1.32-2.13 3t2.58 3.09a10.74 10.74 0 0 0 5 1.43 8.9 8.9 0 0 0 4.88-1.15 5.57 5.57 0 0 0 2.51-2.44l1.38.8a7.07 7.07 0 0 1-2.8 2.48 11.47 11.47 0 0 1-6.14 1.49 12.79 12.79 0 0 1-6.25-1.7q-3-1.72-3.09-3.91t2.81-3.86z"/></g><path class="cls-3" d="M121.91 156.36l2.69 1.57 2.33-1.35 1.2.69-2.34 1.35 5.25 3a3.9 3.9 0 0 0 1.64.59 2.6 2.6 0 0 0 1.46-.38 1.19 1.19 0 0 0 .65-.73l1.19.69a2.47 2.47 0 0 1-1 .94 4.71 4.71 0 0 1-5-.17l-5.49-3.19-1.6.92-1.19-.7 1.59-.92-2.24-1.3zm16.73-6.78c2-1.17 4.27-1 6.76.41l5.63 3.27-1.39.8-5.25-3.06a6.94 6.94 0 0 0-2.75-1 3.85 3.85 0 0 0-2.28.54 1.27 1.27 0 0 0-.74 1.44 2.62 2.62 0 0 0 1.4 1.61l5.22 3-1.38.8-5.43-3.16q-2.75-1.59-4.88-.36a1.29 1.29 0 0 0-.8 1.42 2.79 2.79 0 0 0 1.49 1.61l5.22 3-1.39.8-9.15-5.31 1.4-.8 1.44.84c-.46-1-.06-1.88 1.19-2.61a5.17 5.17 0 0 1 2.14-.63 6.15 6.15 0 0 1 2.36.24c-.55-1.11-.17-2.07 1.19-2.85zm-20.72-13.7a13 13 0 0 1 6.26 1.75c2 1.19 3.14 2.46 3.28 3.81s-.73 2.58-2.63 3.67a11.36 11.36 0 0 1-6.17 1.47 13.13 13.13 0 0 1-6.3-1.75q-3.08-1.79-3.24-3.83c-.1-1.36.8-2.6 2.71-3.7a11.19 11.19 0 0 1 6.09-1.42zm7.64 5.69c-.13-1-1-2-2.64-3a11.46 11.46 0 0 0-5.13-1.61 8.53 8.53 0 0 0-4.78 1.11c-1.4.81-2 1.76-1.86 2.83s1 2.06 2.57 2.95a11.14 11.14 0 0 0 5 1.51 8.43 8.43 0 0 0 4.81-1c1.47-.85 2.13-1.79 2-2.81m63.02-47.18l2.69 1.57 2.33-1.35 1.2.69-2.33 1.35 5.24 3.05a3.9 3.9 0 0 0 1.65.58 2.5 2.5 0 0 0 1.45-.37 1.19 1.19 0 0 0 .65-.73l1.19.69a2.41 2.41 0 0 1-1.05.94 4.73 4.73 0 0 1-5-.17l-5.49-3.19-1.6.92-1.19-.7 1.6-.92-2.25-1.3zm27.48-13.52l12-1.92.47.27-3.83 6.67-1.27-.74 2.95-4.96-.06-.04-8.98 1.47-1.28-.75zm-7.69.13l13.53 7.86-1.38.8-13.52-7.86 1.37-.8zm-3.05 6.61c2-1.17 4.26-1 6.75.41l5.63 3.27-1.39.8L211 89a7 7 0 0 0-2.75-1 3.81 3.81 0 0 0-2.28.54 1.27 1.27 0 0 0-.74 1.44 2.62 2.62 0 0 0 1.39 1.61l5.22 3-1.38.8-5.43-3.16c-1.83-1.07-3.46-1.18-4.88-.36a1.27 1.27 0 0 0-.79 1.42 2.77 2.77 0 0 0 1.48 1.61l5.22 3-1.39.8-9.14-5.31 1.39-.8 1.44.84c-.46-1-.06-1.88 1.19-2.61a5.17 5.17 0 0 1 2.14-.63 6.15 6.15 0 0 1 2.36.24c-.51-1.1-.12-2.06 1.24-2.84zM176 99.64l5.91 3.44c-.46-1.08 0-2 1.29-2.75 2.07-1.2 4.34-1.08 6.83.37l5.62 3.27-1.38.8-5.27-3.07c-1.94-1.13-3.64-1.26-5.09-.42a1.61 1.61 0 0 0-1 1.55 2.43 2.43 0 0 0 1.42 1.69l5.18 3-1.4.8-13.52-7.86zm-7.48 5.18l1.29.75-5.07 2.93 4.36 2.52 4.68-2.7 1.28.75-4.68 2.7 4.58 2.66 5.35-3.09 1.3.75-6.77 3.91-12.8-7.44 6.48-3.74zm-9.08 6.4a7.22 7.22 0 0 1 3.95 1c1.25.73 1.83 1.57 1.7 2.53a3.46 3.46 0 0 1-2 2.42l-.22.12-1.72 1 4.85 2.82-1.41.82-12.79-7.44 3.47-2a8.84 8.84 0 0 1 4.17-1.27zm3.73 3.53c.08-.59-.33-1.15-1.21-1.66a5.29 5.29 0 0 0-5.63.27l-1.81 1 5.32 3.09 1.62-.93c1.06-.61 1.62-1.22 1.71-1.82m-55.39 52.16l1.29.75-2.55 5.19.05.02 8.58-1.68 1.28.74-11.54 2.19-.47-.27 3.36-6.94zm1.6-5.22l5.92 3.43c-.46-1.08 0-2 1.29-2.75 2.07-1.2 4.34-1.08 6.83.37l5.62 3.27-1.38.8-5.27-3.06c-2-1.13-3.64-1.27-5.09-.43-.74.43-1.08.94-1 1.55a2.43 2.43 0 0 0 1.41 1.7l5.18 3-1.39.8-13.5-7.88zm40.01-18.8l12-1.92.46.27-3.82 6.67-1.27-.74 2.94-4.96-.06-.03-8.97 1.46-1.28-.75zm-7.69.14l13.53 7.86-1.39.79-13.52-7.85 1.38-.8zm-13.62 35.67l1.29.75-2.55 5.19.04.03 8.59-1.69 1.28.75-11.55 2.19-.46-.27 3.36-6.95zm26.46-9.65l.75.43-6.52 3.77a7 7 0 0 0 3.26.92 5.71 5.71 0 0 0 3-.78 3.39 3.39 0 0 0 1.83-2.25l1.32.77c-.2.81-1 1.59-2.3 2.36a7.76 7.76 0 0 1-4.27 1 9.75 9.75 0 0 1-4.63-1.4 3.89 3.89 0 0 1-2.24-2.69c-.1-1 .44-1.83 1.65-2.53a7 7 0 0 1 3.91-.92 9.18 9.18 0 0 1 4.24 1.32zm-7 3.48l5.07-2.92a5.74 5.74 0 0 0-2.63-.81 4.35 4.35 0 0 0-2.44.58 1.77 1.77 0 0 0-1.05 1.43 2.18 2.18 0 0 0 1.05 1.72m-17.86.95l5.91 3.44q-.69-1.62 1.29-2.76c2.07-1.19 4.34-1.07 6.82.38l5.63 3.27-1.39.8-5.27-3.07c-1.94-1.13-3.63-1.27-5.09-.43a1.62 1.62 0 0 0-1 1.56c.06.62.53 1.18 1.41 1.69l5.18 3-1.39.8-13.52-7.86zm26.07-10.21a6.15 6.15 0 0 1 6.57.11l6 3.47-1.39.8-1.44-.83h-.05c.47 1 .07 1.87-1.18 2.59a6 6 0 0 1-2.86.82 5 5 0 0 1-2.71-.66c-1.69-1-1.67-2.13.07-3.47l2.37-1.83a4 4 0 0 0-4.28-.28 3.28 3.28 0 0 0-1.86 2.39l-1.46-.85a4.75 4.75 0 0 1 2.22-2.26zm7.44 2.23l-.93-.53-1.95 1.47c-.69.51-1.05.94-1.08 1.28s.23.66.8 1a2.93 2.93 0 0 0 1.62.37 3.81 3.81 0 0 0 1.71-.5c.74-.43 1.09-.93 1.06-1.52a2.1 2.1 0 0 0-1.23-1.56m.81-11.82l1.38-.8 13.52 7.86-1.38.8-1.57-.92c.48 1.11 0 2.06-1.42 2.89a7.12 7.12 0 0 1-4 .89 9.65 9.65 0 0 1-4.37-1.35c-1.5-.87-2.32-1.79-2.47-2.77s.42-1.83 1.68-2.56a6.39 6.39 0 0 1 4.27-.73zm9.4 5.46l-1.38-.8a5.83 5.83 0 0 0-5.33 0c-.91.53-1.3 1.15-1.15 1.84s.8 1.37 2 2a7.63 7.63 0 0 0 3.27 1 5.14 5.14 0 0 0 3-.62c.82-.47 1.2-1 1.15-1.69a2.55 2.55 0 0 0-1.48-1.78m-.45-6.34l12.01-1.93.46.27-3.83 6.68-1.28-.74 2.95-4.96-.05-.04-8.98 1.47-1.28-.75zm-16.13 32.82l1.28.75-2.55 5.19.04.03 8.59-1.69 1.28.75-11.54 2.19-.46-.27 3.36-6.95zm53.62-30.42a8.48 8.48 0 0 1 2.57-1l1.44.84a7.22 7.22 0 0 0-2.93.86c-.94.54-1.37 1.19-1.31 1.93s.65 1.45 1.77 2.1a7.24 7.24 0 0 0 3.43 1 6.14 6.14 0 0 0 3.25-.78 2.82 2.82 0 0 0 1.47-1.79l1.33.78a4.13 4.13 0 0 1-1.85 1.81 8.46 8.46 0 0 1-4.42 1.09 9.08 9.08 0 0 1-4.5-1.23c-1.51-.88-2.29-1.83-2.34-2.86s.66-1.92 2.09-2.75zm-14.38 8.3a6.15 6.15 0 0 1 6.57.12l6 3.47-1.39.8-1.44-.84h-.05c.47 1 .07 1.87-1.18 2.59a5.8 5.8 0 0 1-2.87.82 5 5 0 0 1-2.69-.65c-1.69-1-1.67-2.14.06-3.47l2.37-1.84a4.06 4.06 0 0 0-4.28-.28 3.36 3.36 0 0 0-1.87 2.39l-1.45-.84a4.81 4.81 0 0 1 2.22-2.27zm7.44 2.24l-.93-.54-2 1.47c-.69.52-1 .94-1.08 1.28s.23.67.8 1a2.92 2.92 0 0 0 1.62.36 3.57 3.57 0 0 0 1.71-.5c.74-.42 1.09-.92 1.06-1.51a2.07 2.07 0 0 0-1.23-1.56m-17.53.73l2.69 1.57 2.31-1.35 1.19.69-2.33 1.35 5.25 3.05a3.87 3.87 0 0 0 1.64.58 2.48 2.48 0 0 0 1.45-.37 1.22 1.22 0 0 0 .66-.73l1.18.69a2.41 2.41 0 0 1-1.05.94 4.73 4.73 0 0 1-5-.17l-5.49-3.19-1.6.92-1.19-.7 1.6-.92-2.25-1.3zm2.76 6.36l.74.43-6.5 3.77a7 7 0 0 0 3.25.92 5.67 5.67 0 0 0 3-.78 3.42 3.42 0 0 0 1.84-2.25l1.32.77a4.44 4.44 0 0 1-2.3 2.36 7.88 7.88 0 0 1-4.28 1 9.84 9.84 0 0 1-4.62-1.41c-1.38-.8-2.13-1.7-2.24-2.69s.44-1.83 1.65-2.53a7 7 0 0 1 3.91-.92 9.18 9.18 0 0 1 4.23 1.33zm-7 3.48l5.07-2.93a5.85 5.85 0 0 0-2.63-.8 4.32 4.32 0 0 0-2.43.58 1.77 1.77 0 0 0-1.05 1.43 2.14 2.14 0 0 0 1 1.72m-10.51 1.59c2-1.17 4.27-1 6.75.41l5.63 3.27-1.39.8-5.24-3a7.25 7.25 0 0 0-2.75-1 3.81 3.81 0 0 0-2.28.54 1.27 1.27 0 0 0-.74 1.45 2.61 2.61 0 0 0 1.4 1.61l5.22 3-1.38.8-5.43-3.22q-2.75-1.6-4.88-.37a1.27 1.27 0 0 0-.79 1.43 2.77 2.77 0 0 0 1.48 1.61l5.22 3-1.39.8-9.14-5.31 1.39-.8 1.45.84c-.46-1-.07-1.88 1.19-2.61a5.12 5.12 0 0 1 2.13-.63 6.15 6.15 0 0 1 2.36.24c-.55-1.12-.17-2.08 1.19-2.86zm89.28-46.48l.74.43-6.52 3.77a6.9 6.9 0 0 0 3.26.91 5.62 5.62 0 0 0 3-.77 3.42 3.42 0 0 0 1.83-2.25l1.33.77a4.42 4.42 0 0 1-2.31 2.36 7.84 7.84 0 0 1-4.27 1 9.71 9.71 0 0 1-4.62-1.4 3.88 3.88 0 0 1-2.25-2.69 2.64 2.64 0 0 1 1.65-2.53 7 7 0 0 1 3.92-.92 9.25 9.25 0 0 1 4.24 1.32zm-7 3.48l5.07-2.93a5.77 5.77 0 0 0-2.62-.8 4.35 4.35 0 0 0-2.44.58 1.8 1.8 0 0 0-1.05 1.43 2.22 2.22 0 0 0 1 1.72m-9.45 1a9 9 0 0 1 2.52-1l1.44.83a7.85 7.85 0 0 0-3 1 2 2 0 0 0-1 1c-.09.33.06.62.45.85a2.31 2.31 0 0 0 1.27.32 13.92 13.92 0 0 0 2.41-.44 12.16 12.16 0 0 1 3.31-.52 4.2 4.2 0 0 1 2 .56c.82.47 1.12 1 .92 1.7a3.71 3.71 0 0 1-1.89 1.9 8.78 8.78 0 0 1-3 1.09l-1.52-.88a8.52 8.52 0 0 0 3.53-1c1.31-.75 1.52-1.38.65-1.89a2.37 2.37 0 0 0-1.38-.3 12.68 12.68 0 0 0-2.51.49 11.93 11.93 0 0 1-3.17.46 4.39 4.39 0 0 1-2-.58c-.78-.45-1.07-1-.89-1.69a3.42 3.42 0 0 1 1.86-1.9zm-5.56 3.25a4 4 0 0 1 1-.45l1.45.84a3.33 3.33 0 0 0-1.39.47 1.16 1.16 0 0 0-.68 1.46 3.63 3.63 0 0 0 1.79 1.77l4.67 2.72-1.38.8-9.14-5.32 1.38-.8 1.9 1.11a1.78 1.78 0 0 1-.55-1.44 1.64 1.64 0 0 1 .95-1.16zm-9.89 5.64a6.16 6.16 0 0 1 6.58.11l6 3.47-1.38.8-1.44-.83h-.05c.46 1 .06 1.87-1.18 2.59a6.09 6.09 0 0 1-2.88.82 5 5 0 0 1-2.69-.66q-2.53-1.47.06-3.46l2.38-1.84a4.08 4.08 0 0 0-4.29-.28 3.31 3.31 0 0 0-1.86 2.38l-1.46-.84a4.8 4.8 0 0 1 2.21-2.26zm7.44 2.24l-.92-.54-2 1.47c-.68.51-1 .94-1.07 1.28s.23.66.8 1a3 3 0 0 0 1.61.36 3.61 3.61 0 0 0 1.72-.5 1.72 1.72 0 0 0 1.06-1.52 2.11 2.11 0 0 0-1.24-1.55m-23.87 2.43l5.92 3.44q-.67-1.64 1.29-2.76c2.07-1.2 4.34-1.07 6.83.37l5.63 3.27-1.38.8-5.27-3.07c-1.95-1.13-3.64-1.27-5.11-.42a1.61 1.61 0 0 0-1 1.55c.06.62.54 1.18 1.41 1.69l5.18 3-1.39.8-13.53-7.85zM257.75 125l2.69 1.56 2.32-1.34 1.2.69-2.33 1.35 5.25 3a3.86 3.86 0 0 0 1.64.59 2.44 2.44 0 0 0 1.45-.38 1.16 1.16 0 0 0 .65-.72l1.19.69a2.5 2.5 0 0 1-1 .94 4.71 4.71 0 0 1-5-.18l-5.5-3.19-1.59.92-1.2-.69 1.6-.92-2.31-1.32zm13.87 2.35l-1.15-.67 8.42-4.85 1.14.66-8.41 4.86zm-4.94-2.87l8.42-4.86 1.13.66-8.42 4.86-1.13-.66zm9.73-11.4l1.51-.88 3.72 2.48-.96.56-4.27-2.16zm1.32 3.86l-4.26-2.16 1.52-.88 3.71 2.48-.97.56zm16.19-12.85l2.69 1.56 2.33-1.35 1.19.7-2.33 1.34 5.25 3a3.9 3.9 0 0 0 1.64.59 2.51 2.51 0 0 0 1.45-.38 1.19 1.19 0 0 0 .66-.73l1.18.69a2.41 2.41 0 0 1-1.05.94 4.69 4.69 0 0 1-5-.17l-5.49-3.19-1.6.92-1.19-.69 1.6-.92-2.25-1.26zm19.94-4.36l1.1.64-4.9 2.82-1.1-.63 4.9-2.83zm-14.1-1.21A4.71 4.71 0 0 1 301 98l1.26.74a3.58 3.58 0 0 0-1.23.42q-1.54.9.42 2l1.43.83 2.12-1.19 1.2.7-2.2 1.24 7.95 4.62-1.37.79-7.95-4.62-1.57.91-1.19-.7 1.57-.9L300 102c-1-.55-1.44-1.15-1.43-1.79a2 2 0 0 1 1.19-1.69zm-8 9.93l9.14 5.31-1.4.81-1.44-.84c.49 1 .1 1.86-1.18 2.6-2.2 1.27-4.59 1.15-7.19-.35l-5.46-3.18 1.37-.79 5.24 3q2.94 1.71 5.21.41c.74-.43 1.08-.94 1-1.53s-.54-1.13-1.39-1.63l-5.27-3.06zm31.55-17.83l-4.25-2.17 1.52-.87 3.71 2.47-.98.57zm-3.23 4.25c2.61-.65 4.71-.52 6.32.41 1.09.64 1.55 1.36 1.37 2.16s-.92 1.58-2.23 2.33a7.77 7.77 0 0 1-3.6 1 6.19 6.19 0 0 1-3.48-.78c-1.64-1-1.91-2.19-.79-3.7a7.87 7.87 0 0 1-5.49-.49c-.94-.55-1.33-1.2-1.19-1.95a3.28 3.28 0 0 1 1.81-2.05 7.2 7.2 0 0 1 3.23-.93 5.58 5.58 0 0 1 3.13.67 2.15 2.15 0 0 1 .92 3.33zm5.85 2.63c.09-.51-.18-1-.84-1.33-1.29-.75-3.17-.8-5.62-.13q-1.52 2 .35 3.11a4.07 4.07 0 0 0 2.37.51 5.65 5.65 0 0 0 2.5-.76 2.21 2.21 0 0 0 1.24-1.4M313.58 95a6.3 6.3 0 0 0 4.68.27q1.26-1.78-.36-2.73a3.72 3.72 0 0 0-2-.49 4.29 4.29 0 0 0-2.06.58 1.77 1.77 0 0 0-1 1.2 1.14 1.14 0 0 0 .72 1.17m8.44-8.25l1.51-.86 3.73 2.46-.98.57-4.26-2.17zM168.1 202.59l12-1.93.47.27-3.83 6.68-1.27-.74 2.95-4.97-.06-.03-8.98 1.46-1.28-.74zm-5.3-.4l8.73 12.23-1.28.74-8.77-12.21 1.32-.76z"/><g class="cls-4"><path class="cls-3" d="M234.77 193.21l.74.43-6.51 3.76a6.74 6.74 0 0 0 3.25.92 5.59 5.59 0 0 0 3-.77 3.45 3.45 0 0 0 1.84-2.26l1.32.77a4.37 4.37 0 0 1-2.3 2.36 7.73 7.73 0 0 1-4.28 1 9.71 9.71 0 0 1-4.62-1.4 3.88 3.88 0 0 1-2.25-2.69c-.1-1 .45-1.83 1.65-2.53a7 7 0 0 1 3.91-.92 9.1 9.1 0 0 1 4.25 1.33zm-7 3.48l5.07-2.93a5.65 5.65 0 0 0-2.62-.8 4.37 4.37 0 0 0-2.44.58 1.74 1.74 0 0 0-1 1.43 2.18 2.18 0 0 0 1 1.72m-11.92-2.47l13.52 7.86-1.38.8-13.52-7.86 1.38-.8zm-4.02 4.29l2.69 1.56 2.33-1.35 1.19.7-2.33 1.34 5.25 3.05a3.9 3.9 0 0 0 1.64.59 2.62 2.62 0 0 0 1.46-.38 1.17 1.17 0 0 0 .65-.73l1.18.69a2.43 2.43 0 0 1-1 .94 4.73 4.73 0 0 1-5-.17l-5.5-3.19-1.59.92-1.2-.69 1.6-.93-2.25-1.3zm5.57 10.48l-9.14-5.31 1.38-.8 9.14 5.32-1.38.79zm-16.16-4.37l2.69 1.56 2.33-1.34 1.19.69-2.32 1.34 5.24 3a3.9 3.9 0 0 0 1.64.59 2.56 2.56 0 0 0 1.45-.37 1.24 1.24 0 0 0 .66-.73l1.18.68a2.37 2.37 0 0 1-1 .94 4.72 4.72 0 0 1-5-.16l-5.49-3.2-1.6.92-1.22-.64 1.6-.92-2.25-1.31z"/></g><path class="cls-3" d="M197.49 209.13l1.29.74-2.56 5.2.05.02 8.59-1.68 1.28.74-11.55 2.19-.46-.27 3.36-6.94zm9.11-7.24a1.67 1.67 0 0 1-.9.22 1.78 1.78 0 0 1-.91-.23.66.66 0 0 1-.39-.53.63.63 0 0 1 .37-.53 1.91 1.91 0 0 1 .93-.22 2.06 2.06 0 0 1 .93.22.62.62 0 0 1 .36.53.64.64 0 0 1-.39.54zm80.07-38.64l.74.43-6.52 3.76a6.92 6.92 0 0 0 3.26.92 5.8 5.8 0 0 0 3-.77 3.45 3.45 0 0 0 1.84-2.26l1.32.77a4.4 4.4 0 0 1-2.3 2.36 7.9 7.9 0 0 1-4.28 1 9.94 9.94 0 0 1-4.62-1.4 3.91 3.91 0 0 1-2.25-2.7 2.62 2.62 0 0 1 1.65-2.52 7 7 0 0 1 3.92-.92 9.09 9.09 0 0 1 4.24 1.33zm-7 3.47l5.07-2.92a5.67 5.67 0 0 0-2.62-.81 4.44 4.44 0 0 0-2.44.58 1.82 1.82 0 0 0-1.05 1.44 2.22 2.22 0 0 0 1 1.71m-8.86.88l1.38-.8 8.42 4.89q5 2.92.23 5.69a11.42 11.42 0 0 1-3.63 1.34l-1.4-.82a11.35 11.35 0 0 0 3.83-1.22q3.42-2-.23-4.09l-1-.59c.42 1.13-.05 2.08-1.45 2.88a7 7 0 0 1-4 .89 9.36 9.36 0 0 1-4.29-1.3c-1.55-.9-2.41-1.84-2.56-2.81s.41-1.82 1.69-2.56a6.47 6.47 0 0 1 4.27-.74zm5 2.92l-1.38-.81a5.25 5.25 0 0 0-2.67-.65 5.11 5.11 0 0 0-2.64.62c-.92.53-1.31 1.14-1.17 1.84s.81 1.39 2 2.08a7.08 7.08 0 0 0 3.25 1 5.09 5.09 0 0 0 2.92-.6c.83-.48 1.21-1.05 1.16-1.7s-.55-1.25-1.47-1.78m-17.6 4.11a6.17 6.17 0 0 1 6.57.11l6 3.48-1.39.8-1.44-.84h-.05c.47 1 .07 1.87-1.18 2.59a6 6 0 0 1-2.87.82 5 5 0 0 1-2.7-.65c-1.68-1-1.67-2.14.07-3.47l2.37-1.84a4.06 4.06 0 0 0-4.28-.28 3.34 3.34 0 0 0-1.87 2.39l-1.45-.85a4.75 4.75 0 0 1 2.22-2.26zm7.44 2.24l-.93-.54-1.95 1.47c-.69.52-1.05.94-1.08 1.28s.23.67.8 1a3 3 0 0 0 1.61.36 3.58 3.58 0 0 0 1.72-.5 1.69 1.69 0 0 0 1.06-1.51 2.07 2.07 0 0 0-1.23-1.56m-16.02-.12a7.12 7.12 0 0 1 3.95 1c1.25.73 1.83 1.58 1.7 2.54a3.46 3.46 0 0 1-2 2.42l-.22.12-1.72 1 4.86 2.83-1.41.81L242 180l3.48-2a8.79 8.79 0 0 1 4.11-1.25zm3.72 3.53c.09-.6-.31-1.15-1.2-1.66a5.29 5.29 0 0 0-5.63.27l-1.81 1L250 183l1.62-.93c1.06-.61 1.62-1.22 1.7-1.82m-20.17 8.3l12-1.92.46.26-3.83 6.68-1.27-.74 2.94-4.96-.05-.04-8.97 1.46-1.28-.74zm74.58-31.7l-9.14-5.32 1.38-.79 9.14 5.31-1.38.8zm-5.57-10.49l2.69 1.56 2.33-1.34 1.19.69-2.37 1.35 5.24 3a3.85 3.85 0 0 0 1.65.59 2.56 2.56 0 0 0 1.45-.37 1.24 1.24 0 0 0 .66-.73l1.18.68a2.42 2.42 0 0 1-1.05.95 4.71 4.71 0 0 1-5-.18l-5.49-3.19-1.6.92-1.19-.69 1.6-.92-2.25-1.31zm50.43-29.12l2.69 1.57 2.32-1.35 1.2.7-2.33 1.34 5.25 3a3.86 3.86 0 0 0 1.64.59 2.56 2.56 0 0 0 1.46-.38 1.18 1.18 0 0 0 .64-.73l1.19.69a2.43 2.43 0 0 1-1 .94 4.71 4.71 0 0 1-5-.17l-5.5-3.19-1.59.92-1.2-.7 1.6-.92-2.25-1.3zm5.56 10.49l-9.14-5.31 1.38-.79 9.14 5.31-1.38.79zm-20.34-3.07l8.73 12.23-1.29.75-8.76-12.22 1.32-.76zm4.19-1.3l2.69 1.56 2.32-1.34 1.19.69-2.32 1.34 5.25 3a3.87 3.87 0 0 0 1.63.59 2.45 2.45 0 0 0 1.46-.38 1.15 1.15 0 0 0 .65-.72l1.19.69a2.47 2.47 0 0 1-1.05.94 4.71 4.71 0 0 1-5-.18l-5.49-3.19-1.6.92-1.19-.69 1.6-.92-2.25-1.31zm-10.86 8.61l1.28.74-2.54 5.19.04.03 8.58-1.68 1.28.74-11.54 2.19-.47-.27 3.37-6.94zm-6.06 9.1l.75.43-6.52 3.76a6.92 6.92 0 0 0 3.26.92 5.74 5.74 0 0 0 3-.77 3.45 3.45 0 0 0 1.84-2.26l1.33.77a4.39 4.39 0 0 1-2.31 2.36 7.85 7.85 0 0 1-4.27 1 10 10 0 0 1-4.63-1.4c-1.38-.81-2.13-1.71-2.24-2.7a2.62 2.62 0 0 1 1.65-2.52 7 7 0 0 1 3.91-.92 9.06 9.06 0 0 1 4.23 1.33zm-7 3.47l5.07-2.92a5.74 5.74 0 0 0-2.62-.81 4.44 4.44 0 0 0-2.44.58 1.8 1.8 0 0 0-1.05 1.44 2.19 2.19 0 0 0 1 1.71m-11.86-2.46l13.52 7.86-1.38.79-13.52-7.86 1.38-.79zm-13.1 8.41l1.29.74-3.72 2.15 11.51 6.69-1.42.81-11.51-6.68-3.71 2.14-1.28-.75 8.84-5.1zm3.84-.75a1.69 1.69 0 0 1-.91.23 2 2 0 0 1-.9-.23.66.66 0 0 1-.39-.53c0-.21.11-.38.37-.53a1.8 1.8 0 0 1 .93-.22 1.9 1.9 0 0 1 .92.22.62.62 0 0 1 .36.53.6.6 0 0 1-.38.53zm50.42-29.11a1.65 1.65 0 0 1-.9.22 1.85 1.85 0 0 1-.9-.23c-.26-.15-.39-.32-.39-.53a.6.6 0 0 1 .36-.52 1.76 1.76 0 0 1 .93-.23 1.78 1.78 0 0 1 .93.23.58.58 0 0 1 .36.52.62.62 0 0 1-.39.54zm26.55-13.34l12-1.92.46.27-3.82 6.67-1.28-.74 2.95-4.96-.06-.04-8.97 1.46-1.28-.74zm1.63 4.71l.74.43-6.52 3.76a6.9 6.9 0 0 0 3.25.93 5.82 5.82 0 0 0 3-.78 3.42 3.42 0 0 0 1.83-2.25l1.32.77c-.2.81-1 1.59-2.3 2.36a7.85 7.85 0 0 1-4.28 1 9.71 9.71 0 0 1-4.61-1.4c-1.39-.8-2.14-1.7-2.25-2.69s.44-1.83 1.65-2.53a7 7 0 0 1 3.91-.92 9.13 9.13 0 0 1 4.26 1.32zm-7 3.48l5.08-2.93a5.81 5.81 0 0 0-2.62-.8 4.43 4.43 0 0 0-2.44.57 1.8 1.8 0 0 0-1.05 1.44 2.18 2.18 0 0 0 1 1.72m-11.89-2.52l13.53 7.86-1.38.8-13.52-7.86 1.37-.8z"/><g class="cls-4"><path class="cls-3" d="M242.29 207.38a4.19 4.19 0 0 1 1-.45l1.45.84a3.33 3.33 0 0 0-1.39.47 1.16 1.16 0 0 0-.68 1.46 3.63 3.63 0 0 0 1.79 1.77l4.67 2.71-1.39.81-9.14-5.32 1.39-.8 1.9 1.1a1.8 1.8 0 0 1-.56-1.44 1.66 1.66 0 0 1 .96-1.15zm-8.23 4.68a8.46 8.46 0 0 1 2.57-1l1.44.84a7.22 7.22 0 0 0-2.92.85c-.94.54-1.38 1.19-1.32 1.93s.65 1.45 1.77 2.1a7.27 7.27 0 0 0 3.43 1 6 6 0 0 0 3.25-.78 2.87 2.87 0 0 0 1.48-1.78l1.33.77a4.16 4.16 0 0 1-1.86 1.81 8.26 8.26 0 0 1-4.41 1.09 9.12 9.12 0 0 1-4.51-1.23c-1.51-.87-2.29-1.83-2.34-2.86s.66-1.91 2.09-2.74z"/></g><path class="cls-3" d="M225.11 217.23a8.93 8.93 0 0 1 2.53-1l1.43.83a7.91 7.91 0 0 0-3 1 1.85 1.85 0 0 0-1 1c-.09.34 0 .62.44.85a2.39 2.39 0 0 0 1.27.33 15.39 15.39 0 0 0 2.41-.45 12.22 12.22 0 0 1 3.31-.52 4.24 4.24 0 0 1 2 .56c.81.47 1.12 1 .92 1.7a3.84 3.84 0 0 1-1.89 1.91 9 9 0 0 1-3 1.08l-1.52-.88a8.48 8.48 0 0 0 3.53-1c1.3-.76 1.52-1.39.65-1.9a2.55 2.55 0 0 0-1.37-.3 13.54 13.54 0 0 0-2.52.49 11.93 11.93 0 0 1-3.17.46 4.39 4.39 0 0 1-2-.58c-.78-.45-1.07-1-.89-1.68a3.47 3.47 0 0 1 1.87-1.9zm-7.32 3.69l1.29.75-2.56 5.19.05.03 8.59-1.69 1.28.74-11.55 2.19-.46-.26 3.36-6.95zm39.97-21.13a9.58 9.58 0 0 1 4.31 1.33c1.52.88 2.37 1.81 2.53 2.79s-.4 1.83-1.69 2.57a6.62 6.62 0 0 1-4.31.7l5.54 3.22-1.39.8-13.34-7.75 1.39-.8 1.62.94c-.49-1.14 0-2.1 1.35-2.91a7.11 7.11 0 0 1 3.99-.89zm4.95 4.24c-.18-.7-.88-1.4-2.1-2.11a7 7 0 0 0-3.16-1 5 5 0 0 0-2.82.62c-.84.48-1.25 1-1.2 1.72s.52 1.25 1.44 1.79l1.32.77a5.51 5.51 0 0 0 2.72.68 5.21 5.21 0 0 0 2.71-.64c.9-.52 1.26-1.13 1.09-1.84m-8.6 7.3l-9.14-5.31 1.37-.8 9.15 5.32-1.38.79zm-10.82-7.1a1.68 1.68 0 0 1-.91.22 1.71 1.71 0 0 1-.89-.23c-.26-.15-.4-.32-.39-.53a.58.58 0 0 1 .36-.52 2 2 0 0 1 1.85 0 .65.65 0 0 1 .38.52.65.65 0 0 1-.4.54zm16.01-9.6l2.69 1.56 2.33-1.34 1.19.69-2.33 1.35 5.25 3a3.77 3.77 0 0 0 1.64.59 2.49 2.49 0 0 0 1.45-.38 1.19 1.19 0 0 0 .66-.73l1.18.69a2.42 2.42 0 0 1-1.05.95 4.71 4.71 0 0 1-5-.18l-5.49-3.19-1.6.92-1.22-.65 1.6-.92-2.25-1.31zm29.04-13.9a8.73 8.73 0 0 1 2.57-1l1.44.84a7.19 7.19 0 0 0-2.91.85c-.95.55-1.39 1.19-1.33 1.94s.65 1.44 1.77 2.09a7 7 0 0 0 3.43 1 6 6 0 0 0 3.25-.78 2.83 2.83 0 0 0 1.47-1.78l1.33.77a4.1 4.1 0 0 1-1.85 1.82 8.36 8.36 0 0 1-4.42 1.08 9.07 9.07 0 0 1-4.5-1.22c-1.51-.88-2.29-1.84-2.34-2.86s.66-1.92 2.09-2.75zm-6.34 3.73a4.08 4.08 0 0 1 1-.45l1.44.84a3.53 3.53 0 0 0-1.39.47 1.16 1.16 0 0 0-.68 1.46 3.68 3.68 0 0 0 1.79 1.77l4.67 2.71-1.39.81-9.14-5.31 1.39-.81 1.9 1.11a1.77 1.77 0 0 1-.55-1.43 1.67 1.67 0 0 1 .96-1.17zm-8.7 4.96a8.87 8.87 0 0 1 2.52-1l1.44.83a7.85 7.85 0 0 0-3 1 1.92 1.92 0 0 0-1 1c-.09.34.06.62.45.85a2.38 2.38 0 0 0 1.26.33 15.45 15.45 0 0 0 2.42-.45 12.16 12.16 0 0 1 3.3-.52 4.21 4.21 0 0 1 2 .56c.82.47 1.12 1 .91 1.7a3.73 3.73 0 0 1-1.88 1.91 8.68 8.68 0 0 1-3 1.08l-1.51-.88a8.47 8.47 0 0 0 3.52-1c1.31-.76 1.53-1.39.65-1.9a2.5 2.5 0 0 0-1.37-.3 13.54 13.54 0 0 0-2.52.49 11.82 11.82 0 0 1-3.16.46 4.35 4.35 0 0 1-2-.58c-.79-.45-1.08-1-.89-1.68a3.39 3.39 0 0 1 1.86-1.9zm26.45-7.76l-1.14-.67 8.41-4.85 1.14.66-8.41 4.86zm-4.93-2.87l8.41-4.86 1.13.66-8.41 4.86-1.13-.66zm11.04-7.54l-4.25-2.17 1.52-.87 3.71 2.47-.98.57zm-1.31-3.86l1.51-.88 3.73 2.47-.97.56-4.27-2.15zm58.9-30.02a8.93 8.93 0 0 1 2.53-1l1.43.83a7.86 7.86 0 0 0-3 1 1.9 1.9 0 0 0-1 1 .73.73 0 0 0 .45.86 2.28 2.28 0 0 0 1.26.32 14 14 0 0 0 2.42-.44 12.16 12.16 0 0 1 3.3-.52 4.32 4.32 0 0 1 2 .55c.82.48 1.12 1.05.92 1.71a3.79 3.79 0 0 1-1.89 1.9 9 9 0 0 1-3 1.09l-1.52-.88a8.48 8.48 0 0 0 3.53-1c1.31-.76 1.53-1.39.65-1.9a2.42 2.42 0 0 0-1.37-.3 12.74 12.74 0 0 0-2.52.49 11.87 11.87 0 0 1-3.16.46 4.48 4.48 0 0 1-2-.58c-.79-.46-1.08-1-.9-1.69a3.49 3.49 0 0 1 1.87-1.9z"/><g class="cls-4"><path class="cls-3" d="M360.25 148a1.86 1.86 0 0 1 1-.23 1.89 1.89 0 0 1 1 .24.6.6 0 0 1 0 1.12 1.93 1.93 0 0 1-.95.22 1.83 1.83 0 0 1-1-.23.62.62 0 0 1-.39-.57.63.63 0 0 1 .34-.55zm5.06-1.06l-9-5.22 1.38-.8 8.74 5.08c1.5.87 2.36 1.72 2.57 2.55s-.24 1.56-1.36 2.2a4.86 4.86 0 0 1-1.51.53l-1.3-.75a4.85 4.85 0 0 0 1.67-.51q2.07-1.19-1.19-3.08z"/></g><path class="cls-3" d="M346.28 147.27a5.73 5.73 0 0 1 3.27-.77 8.1 8.1 0 0 1 3.6 1.17l5.59 3.24-1.39.81-5.22-3c-2-1.14-3.68-1.3-5.14-.46-.76.44-1.1 1-1 1.57a2.41 2.41 0 0 0 1.39 1.65l5.21 3-1.39.81L342 150l1.39-.81 1.53.89c-.39-1.08.08-2.08 1.36-2.81zm-14.87 8.59a6.16 6.16 0 0 1 6.59.14l6 3.47-1.39.81-1.44-.84c.46 1 .06 1.87-1.18 2.59a6 6 0 0 1-2.87.82 5.06 5.06 0 0 1-2.7-.66q-2.54-1.47.06-3.47l2.38-1.83a4.06 4.06 0 0 0-4.29-.28 3.31 3.31 0 0 0-1.86 2.39l-1.45-.85a4.73 4.73 0 0 1 2.15-2.29zm7.44 2.23l-.92-.53L336 159c-.68.52-1 .94-1.07 1.28s.23.66.8 1a2.91 2.91 0 0 0 1.61.37 3.85 3.85 0 0 0 1.72-.5 1.73 1.73 0 0 0 1.06-1.52 2.11 2.11 0 0 0-1.24-1.56m-16.63 3.08c2-1.17 4.27-1 6.76.41l5.63 3.27-1.39.8-5.25-3a6.94 6.94 0 0 0-2.75-1 3.71 3.71 0 0 0-2.28.54 1.27 1.27 0 0 0-.74 1.44 2.58 2.58 0 0 0 1.4 1.6l5.22 3-1.38.79-5.47-3.19c-1.83-1.07-3.46-1.18-4.88-.36a1.29 1.29 0 0 0-.8 1.42 2.75 2.75 0 0 0 1.49 1.6l5.22 3-1.39.8-9.11-5.27 1.4-.8 1.44.84c-.46-1-.06-1.88 1.19-2.6a5.27 5.27 0 0 1 2.14-.63 6 6 0 0 1 2.36.24c-.55-1.16-.17-2.12 1.19-2.9zm24.52-3.33l-9.14-5.31 1.38-.8 9.14 5.32-1.38.79zm-10.77-7.1a1.67 1.67 0 0 1-.9.22 1.89 1.89 0 0 1-.91-.23.66.66 0 0 1-.39-.53.63.63 0 0 1 .37-.53 1.83 1.83 0 0 1 .93-.22 1.94 1.94 0 0 1 .93.22.62.62 0 0 1 .36.53.64.64 0 0 1-.39.54zm17.76-12.09a1.87 1.87 0 0 1 .92.23.63.63 0 0 1 .37.53c0 .21-.13.38-.39.53a1.65 1.65 0 0 1-.91.23 1.76 1.76 0 0 1-.91-.23.66.66 0 0 1-.39-.53.6.6 0 0 1 .37-.53 2 2 0 0 1 .94-.23zm15.14-3.79l-4.26-2.16 1.53-.88 3.71 2.48-.98.56zm-1.31-3.86l1.51-.87 3.73 2.47-.98.56-4.26-2.16zm8.27-1.31l12-1.92.46.26-3.82 6.68-1.28-.74 2.95-4.97-.06-.03-8.97 1.46-1.28-.74zM238.09 232.72l1.29.75-2.56 5.19.05.03 8.58-1.69 1.29.74-11.55 2.19-.46-.27 3.36-6.94zm14.42-7.79a8.58 8.58 0 0 1 2.52-1l1.44.83a7.85 7.85 0 0 0-3 1 1.87 1.87 0 0 0-1 1c-.1.34.05.63.44.85a2.22 2.22 0 0 0 1.27.33 13.92 13.92 0 0 0 2.41-.44 12.16 12.16 0 0 1 3.31-.52 4.31 4.31 0 0 1 2 .55c.82.48 1.12 1 .92 1.71a3.76 3.76 0 0 1-1.88 1.9 9 9 0 0 1-3 1.09l-1.51-.88a8.58 8.58 0 0 0 3.52-1c1.31-.76 1.53-1.39.66-1.9a2.56 2.56 0 0 0-1.38-.31 14.38 14.38 0 0 0-2.51.49 11.63 11.63 0 0 1-3.17.47 4.52 4.52 0 0 1-2-.58c-.78-.46-1.07-1-.89-1.69a3.45 3.45 0 0 1 1.85-1.9zm-7.76.48l8.74 12.24-1.29.74-8.75-12.22 1.3-.76zm49.24-24.96l12-1.93.47.27-3.83 6.68-1.27-.74 2.94-4.96-.06-.04-8.97 1.46-1.28-.74zm-7.29 1.87l2.69 1.56 2.33-1.35 1.19.7-2.33 1.34 5.24 3.05a4 4 0 0 0 1.65.59 2.49 2.49 0 0 0 1.45-.38 1.17 1.17 0 0 0 .65-.73l1.19.69a2.41 2.41 0 0 1-1.05.94 4.69 4.69 0 0 1-5-.17l-5.49-3.19-1.6.92-1.19-.69 1.6-.92-2.25-1.31zm-1.54 5.17a9.46 9.46 0 0 1 4.31 1.33c1.52.88 2.37 1.81 2.52 2.78s-.39 1.83-1.68 2.58a6.63 6.63 0 0 1-4.31.69l5.53 3.22-1.38.8-13.34-7.76 1.38-.8 1.63.95c-.5-1.13 0-2.1 1.35-2.9a7 7 0 0 1 3.99-.89zm4.94 4.24c-.17-.7-.87-1.4-2.1-2.11a6.91 6.91 0 0 0-3.15-1 5 5 0 0 0-2.82.61c-.84.49-1.25 1.06-1.21 1.72a2.46 2.46 0 0 0 1.45 1.8l1.32.76a5.51 5.51 0 0 0 2.72.69 5.21 5.21 0 0 0 2.71-.64c.9-.52 1.26-1.13 1.08-1.84m-8.6 7.3l-9.14-5.31 1.38-.8 9.14 5.31-1.38.8zm-20.04.74a8.52 8.52 0 0 1 2.56-1l1.45.84a7.33 7.33 0 0 0-2.92.86c-.94.54-1.38 1.19-1.32 1.93s.65 1.45 1.77 2.1a7.24 7.24 0 0 0 3.43 1 6.12 6.12 0 0 0 3.25-.78 2.85 2.85 0 0 0 1.47-1.79l1.34.78a4.27 4.27 0 0 1-1.86 1.81 8.37 8.37 0 0 1-4.42 1.09 9.11 9.11 0 0 1-4.5-1.23c-1.51-.88-2.29-1.83-2.34-2.86s.63-1.92 2.09-2.75zm8.23-4.69a4.34 4.34 0 0 1 1-.44l1.45.84a3.19 3.19 0 0 0-1.39.47 1.17 1.17 0 0 0-.69 1.46 3.67 3.67 0 0 0 1.79 1.76l4.68 2.72-1.39.8-9.14-5.31 1.39-.8 1.9 1.1a1.82 1.82 0 0 1-.55-1.44 1.66 1.66 0 0 1 .95-1.16zm1-3.15a1.78 1.78 0 0 1-.91.22 1.81 1.81 0 0 1-.89-.23.65.65 0 0 1-.4-.53.61.61 0 0 1 .36-.53 1.89 1.89 0 0 1 .94-.22 1.87 1.87 0 0 1 .92.22.63.63 0 0 1 .37.53.64.64 0 0 1-.39.54zm12.74 23.74l.75.43-6.52 3.76a6.77 6.77 0 0 0 3.26.92 5.65 5.65 0 0 0 3-.77 3.46 3.46 0 0 0 1.84-2.25l1.32.77a4.35 4.35 0 0 1-2.3 2.35 7.85 7.85 0 0 1-4.27 1 9.86 9.86 0 0 1-4.63-1.4 3.88 3.88 0 0 1-2.24-2.7c-.1-1 .44-1.82 1.65-2.52a7 7 0 0 1 3.91-.92 9.06 9.06 0 0 1 4.23 1.33zm-7 3.47l5.07-2.92a5.61 5.61 0 0 0-2.63-.8 4.4 4.4 0 0 0-2.43.57 1.8 1.8 0 0 0-1.05 1.44 2.19 2.19 0 0 0 1 1.71m-17.82.98l5.91 3.43q-.69-1.62 1.29-2.76c2.06-1.19 4.34-1.07 6.82.37l5.63 3.27-1.39.8-5.27-3.06q-2.91-1.69-5.09-.43a1.62 1.62 0 0 0-1 1.56c.06.62.53 1.18 1.41 1.69l5.17 3-1.38.8-13.52-7.86zm11.6 21.12l1.29.75-2.55 5.19.04.02 8.58-1.68 1.28.74-11.54 2.19-.46-.27 3.36-6.94z"/><g class="cls-4"><path class="cls-3" d="M256.54 242.12l8.74 12.23-1.29.75-8.76-12.22 1.31-.76zm26.63 13.56a9.59 9.59 0 0 1 4.3 1.33c1.52.88 2.36 1.81 2.52 2.78s-.4 1.83-1.69 2.58a6.5 6.5 0 0 1-4.3.69h-.05l1.34.78-1.38.8-13.53-7.86 1.39-.8 6 3.49q-.75-1.7 1.35-2.91a7 7 0 0 1 4.05-.88zm4.93 4.24c-.17-.7-.88-1.41-2.1-2.12a7.08 7.08 0 0 0-3.14-1 5 5 0 0 0-2.84.62c-.85.49-1.24 1.06-1.19 1.72a2.44 2.44 0 0 0 1.44 1.8l1.31.76a5.47 5.47 0 0 0 2.73.68 5.14 5.14 0 0 0 2.7-.64c.9-.52 1.27-1.12 1.09-1.83"/></g><path class="cls-3" d="M249.87 249.43l1.29.75-2.55 5.19.04.03 8.58-1.69 1.29.75-11.55 2.18-.46-.26 3.36-6.95zm52.05-30.04l12.01-1.93.46.27-3.83 6.68-1.28-.74 2.95-4.97-.06-.03-8.97 1.46-1.28-.74zm-9.06.92l1.38-.79 13.52 7.86-1.38.79-1.57-.91c.47 1.1 0 2.06-1.43 2.88a6.93 6.93 0 0 1-4 .89 9.51 9.51 0 0 1-4.37-1.34c-1.5-.87-2.32-1.79-2.47-2.77s.42-1.83 1.68-2.56a6.38 6.38 0 0 1 4.27-.74zm9.4 5.47l-1.39-.81a5.32 5.32 0 0 0-2.66-.66 5.19 5.19 0 0 0-2.66.64c-.92.53-1.3 1.14-1.15 1.84s.8 1.37 2 2a7.37 7.37 0 0 0 3.27 1 5.06 5.06 0 0 0 3-.61 1.83 1.83 0 0 0 1.15-1.69 2.54 2.54 0 0 0-1.48-1.78m-17.7 4.18a6.15 6.15 0 0 1 6.57.12l6 3.47-1.39.8-1.44-.84h-.05c.46 1 .06 1.88-1.18 2.59a6 6 0 0 1-2.87.83 5.08 5.08 0 0 1-2.7-.66q-2.54-1.47.06-3.47l2.38-1.83a4 4 0 0 0-4.29-.28 3.33 3.33 0 0 0-1.86 2.38l-1.45-.84a4.81 4.81 0 0 1 2.22-2.27zm7.44 2.24l-.93-.54-1.95 1.48c-.69.51-1.05.94-1.08 1.27s.23.67.8 1a2.91 2.91 0 0 0 1.61.37 3.81 3.81 0 0 0 1.72-.5c.73-.43 1.09-.93 1.06-1.52a2.07 2.07 0 0 0-1.23-1.56m6.2 8.56l1.38-.79 13.53 7.86-1.38.79-1.58-.91c.48 1.1 0 2.06-1.42 2.89a7.12 7.12 0 0 1-4 .89 9.69 9.69 0 0 1-4.37-1.35c-1.49-.87-2.32-1.79-2.46-2.77s.41-1.83 1.68-2.56a6.37 6.37 0 0 1 4.27-.74zm9.41 5.47l-1.39-.81a5.28 5.28 0 0 0-2.67-.65 5.14 5.14 0 0 0-2.66.63c-.92.53-1.3 1.15-1.15 1.84s.8 1.38 1.95 2.05a7.5 7.5 0 0 0 3.28 1 5.16 5.16 0 0 0 3-.62c.81-.48 1.19-1 1.14-1.69s-.55-1.24-1.47-1.78m-13.92 3.45a9.66 9.66 0 0 1 4.64 1.37c1.44.84 2.19 1.75 2.24 2.74s-.61 1.89-2 2.67a8.53 8.53 0 0 1-4.48 1.12 9.29 9.29 0 0 1-4.63-1.26c-1.52-.88-2.29-1.82-2.34-2.81s.67-1.9 2.11-2.73a8.33 8.33 0 0 1 4.46-1.1zm5.12 4.21c-.09-.67-.71-1.34-1.84-2a7.88 7.88 0 0 0-3.47-1.11 5.74 5.74 0 0 0-3.21.75q-1.42.82-1.29 1.89c.09.7.7 1.39 1.84 2.05a7.33 7.33 0 0 0 3.43 1 5.89 5.89 0 0 0 3.24-.75c1-.56 1.4-1.17 1.3-1.84m17.26-19.11l12-1.92.46.27-3.83 6.67-1.27-.74 2.94-4.96-.05-.03-8.97 1.46-1.28-.75zm5.02 22.61a9.66 9.66 0 0 1 4.64 1.37c1.44.83 2.19 1.75 2.24 2.74s-.62 1.88-2 2.67a8.55 8.55 0 0 1-4.48 1.12 9.26 9.26 0 0 1-4.63-1.26c-1.52-.89-2.29-1.82-2.34-2.81s.67-1.9 2.1-2.73a8.21 8.21 0 0 1 4.47-1.1zm5.12 4.2c-.1-.67-.71-1.33-1.85-2a7.59 7.59 0 0 0-3.46-1.11 5.61 5.61 0 0 0-3.2.75c-.95.55-1.39 1.18-1.3 1.88s.7 1.39 1.84 2.06a7.41 7.41 0 0 0 3.43 1 6 6 0 0 0 3.25-.75c1-.56 1.39-1.17 1.29-1.85m17.25-19.09l12-1.93.47.27-3.83 6.68-1.27-.74 2.94-4.96-.06-.04-8.96 1.46-1.29-.74z"/><g class="cls-4"><path class="cls-3" d="M341.69 244.23l6.39 8.65q1.68 2.26-.33 3.42a5.1 5.1 0 0 1-1 .46l-1.25-.73a4.82 4.82 0 0 0 1-.4 1.06 1.06 0 0 0 .34-1.75l-1-1.46-12.7-3.23 1.54-.88 9.62 2.69.84.27c-.08-.09-.24-.24-.45-.48l-4.47-5.69zm17.78 12.47l12-1.92.47.27-3.83 6.67-1.27-.74 2.94-4.96-.06-.03-8.97 1.46-1.28-.75zm-7.68.14l13.52 7.86-1.39.8-13.52-7.86 1.39-.8zm-3.07 6.6c2-1.17 4.27-1 6.76.41l5.63 3.27-1.39.8-5.24-3.05a7 7 0 0 0-2.76-1 3.85 3.85 0 0 0-2.28.54 1.27 1.27 0 0 0-.74 1.44 2.62 2.62 0 0 0 1.4 1.61l5.22 3-1.38.8-5.43-3.16q-2.75-1.59-4.88-.36a1.29 1.29 0 0 0-.8 1.42 2.77 2.77 0 0 0 1.49 1.61l5.22 3-1.39.8-9.15-5.28 1.39-.8 1.44.84c-.46-1-.06-1.88 1.19-2.61a5.32 5.32 0 0 1 2.14-.63 6.15 6.15 0 0 1 2.36.24c-.52-1.15-.16-2.11 1.2-2.89z"/></g><path class="cls-3" d="M325.68 248.39l1.38-.79 13.52 7.85-1.37.8-1.58-.91c.52 1.08.05 2-1.39 2.87a7 7 0 0 1-4 .88 9.67 9.67 0 0 1-4.37-1.34c-1.5-.87-2.32-1.79-2.47-2.77s.42-1.83 1.69-2.56a6.34 6.34 0 0 1 4.26-.73zm9.41 5.47l-1.39-.81a5.36 5.36 0 0 0-2.67-.66 5.24 5.24 0 0 0-2.66.64c-.92.53-1.3 1.14-1.15 1.84s.8 1.37 1.95 2a7.28 7.28 0 0 0 3.27 1 5.11 5.11 0 0 0 3-.61c.82-.48 1.19-1 1.13-1.69s-.54-1.25-1.46-1.78m-20.82-17.26l6.39 8.65q1.68 2.26-.33 3.42a5.8 5.8 0 0 1-1 .47l-1.25-.73a4.58 4.58 0 0 0 1-.41 1 1 0 0 0 .34-1.74l-1-1.46-12.71-3.24 1.54-.88 9.67 2.68.84.26h.05c-.09-.08-.25-.24-.46-.47l-4.48-5.7zm-23.82 36.49l1.28.75-2.55 5.19.05.03 8.58-1.69 1.28.75-11.54 2.19-.46-.27 3.36-6.95zm20.29 11.8l1.29.75-2.55 5.19.05.02 8.58-1.68 1.28.74-11.54 2.19-.47-.27 3.36-6.94z"/><g class="cls-4"><path class="cls-3" d="M310.57 263.38a9.58 9.58 0 0 1 4.3 1.32c1.51.88 2.36 1.81 2.52 2.79s-.4 1.83-1.69 2.57a6.56 6.56 0 0 1-4.3.7l1.34.78-1.39.8-13.52-7.86 1.39-.8 6 3.49h.05c-.5-1.14-.05-2.1 1.35-2.91a7 7 0 0 1 3.95-.88zm4.94 4.24c-.18-.71-.89-1.41-2.11-2.12a7.12 7.12 0 0 0-3.13-1 4.86 4.86 0 0 0-2.84.62c-.85.49-1.25 1.06-1.2 1.72a2.42 2.42 0 0 0 1.44 1.79l1.31.76a5.46 5.46 0 0 0 2.74.69 5.13 5.13 0 0 0 2.69-.64c.9-.52 1.26-1.13 1.1-1.83m16.49 2.61l2.69 1.57 2.33-1.35 1.2.7-2.33 1.34 5.24 3a3.9 3.9 0 0 0 1.64.59 2.6 2.6 0 0 0 1.46-.38 1.19 1.19 0 0 0 .65-.73l1.19.69a2.41 2.41 0 0 1-1.05.94 4.71 4.71 0 0 1-5-.17l-5.49-3.19-1.6.92-1.19-.69 1.59-.93-2.24-1.3zm-34.86-4.5l8.74 12.23-1.29.74-8.77-12.21 1.32-.76zm22.33 9.78l5.91 3.43q-.69-1.62 1.29-2.76c2.07-1.2 4.34-1.07 6.83.37l5.62 3.27-1.38.8-5.27-3.06q-2.91-1.69-5.09-.43a1.63 1.63 0 0 0-1 1.56 2.43 2.43 0 0 0 1.41 1.69l5.18 3-1.39.8-13.52-7.85zm-2.03 2.01l8.74 12.23-1.29.75-8.77-12.22 1.32-.76z"/></g></g></g></svg>