<svg xmlns="http://www.w3.org/2000/svg" viewBox="0 0 682.43 420.07"><defs><style>.cls-1{fill:none}.cls-2{isolation:isolate}.cls-3{clip-path:url(#clip-path)}.cls-4{fill:#5d5d5d}.cls-5{fill:#616161}.cls-6{fill:#646464}.cls-7{fill:#686868}.cls-8{fill:#6b6b6b}.cls-9{fill:#6f6f6f}.cls-10{fill:#737373}.cls-11{fill:#767676}.cls-12{fill:#7a7a7a}.cls-13{fill:#7d7d7d}.cls-14{fill:#818181}.cls-15{fill:#8a8a8a}.cls-16{clip-path:url(#clip-path-2)}.cls-17{clip-path:url(#clip-path-3)}.cls-18{fill:#858585}.cls-19{clip-path:url(#clip-path-4)}.cls-20{clip-path:url(#clip-path-5)}.cls-21{fill:#606060}.cls-22{clip-path:url(#clip-path-6)}.cls-23{clip-path:url(#clip-path-7)}.cls-24{fill:#949494}.cls-25{fill:#999}.cls-26{fill:#9e9e9e}.cls-27{fill:#a3a3a3}.cls-28{fill:#a8a8a8}.cls-29{fill:#adadad}.cls-30{fill:#b3b3b3}.cls-31{fill:#b8b8b8}.cls-32{clip-path:url(#clip-path-8)}.cls-33{fill:#888}.cls-34{fill:#c5c5c5}.cls-35{clip-path:url(#clip-path-9)}.cls-36{fill:#8f8f8f}.cls-37{clip-path:url(#clip-path-10)}.cls-38{clip-path:url(#clip-path-11)}.cls-39{clip-path:url(#clip-path-12)}.cls-40,.cls-44{fill:#9a9a9a}.cls-41{fill:#dbdbdb}.cls-42{clip-path:url(#clip-path-13)}.cls-43{fill:#2393c2}.cls-43,.cls-44{opacity:.5}</style><clipPath id="clip-path"><path class="cls-1" d="M274.62 7.5l.07 24.5c-15.88-9.22-41.79-9.22-57.77 0l-.07-24.5c15.98-9.23 41.89-9.23 57.77 0z"/></clipPath><clipPath id="clip-path-2"><path class="cls-1" d="M1.07 166.47L1 142c0-6.1 4-12.21 12-16.85l.07 24.45c-8 4.67-12.02 10.77-12 16.87z"/></clipPath><clipPath id="clip-path-3"><path class="cls-1" d="M1.8 170.92a14.13 14.13 0 0 1-.73-4.43L1 142a14.18 14.18 0 0 0 .73 4.43q.05 12.27.07 24.49z"/></clipPath><clipPath id="clip-path-4"><path class="cls-1" d="M12.92 183.09C7 179.64 3.28 175.38 1.8 170.92q0-12.22-.07-24.45c1.48 4.46 5.19 8.71 11.12 12.16.02 7.37.05 17.12.07 24.46z"/></clipPath><clipPath id="clip-path-5"><path class="cls-1" d="M.07 166.47L0 142c0 6.17 4.06 12.33 12.14 17l.07 24.46C4.13 178.8.09 172.64.07 166.47z"/></clipPath><clipPath id="clip-path-6"><path class="cls-1" d="M681.37 253.6l.07 24.45c0-6-4-12-11.86-16.61l-.07-24.44c7.89 4.57 11.84 10.58 11.86 16.6z"/></clipPath><clipPath id="clip-path-7"><path class="cls-1" d="M681.37 253.6l.07 24.45c0 6.1-4 12.21-12 16.85l-.07-24.45c8-4.65 12.01-10.75 12-16.85z"/></clipPath><clipPath id="clip-path-8"><path class="cls-1" d="M682.36 253.6l.07 24.45c0 6.25-4.09 12.51-12.33 17.26l-.1-24.45c8.27-4.76 12.38-11.02 12.36-17.26z"/></clipPath><clipPath id="clip-path-9"><path class="cls-1" d="M425.57 418.61a52.23 52.23 0 0 1-17.76-6l-.07-24.45a52.3 52.3 0 0 0 17.76 6q.03 12.23.07 24.45z"/></clipPath><clipPath id="clip-path-10"><path class="cls-1" d="M425.57 418.61q0-12.23-.07-24.46c1.09.18 2.19.33 3.3.46q0 12.22.07 24.45-1.66-.18-3.3-.45z"/></clipPath><clipPath id="clip-path-11"><path class="cls-1" d="M429 419.07h-.09q0-12.22-.07-24.45h.09q-.01 12.23.07 24.45z"/></clipPath><clipPath id="clip-path-12"><path class="cls-1" d="M429 419.07q0-12.22-.07-24.45c12.84 1.42 26.66-.75 36.63-6.5l.06 24.45c-10 5.75-23.82 7.92-36.62 6.5z"/></clipPath><clipPath id="clip-path-13"><path class="cls-1" d="M466.22 388.53l.07 24.45c-16.37 9.45-42.92 9.45-59.19 0l-.1-24.45c16.3 9.47 42.85 9.47 59.22 0z"/></clipPath></defs><title>Warstwa 1</title><g id="Warstwa_2" data-name="Warstwa 2"><g id="Warstwa_1-2" data-name="Warstwa 1"><g class="cls-2"><g class="cls-2"><g class="cls-3"><g class="cls-2"><path class="cls-4" d="M274.62 7.5l.07 24.5a44.86 44.86 0 0 0-6.16-3l-.07-24.45a42.65 42.65 0 0 1 6.16 2.94"/><path class="cls-5" d="M268.46 4.56l.07 24.44c-1.59-.62-3.24-1.16-4.94-1.64l-.07-24.45a51 51 0 0 1 4.94 1.64"/><path class="cls-6" d="M263.52 2.92l.07 24.45q-2.08-.59-4.26-1l-.07-24.47q2.17.44 4.26 1"/><path class="cls-7" d="M259.26 1.9l.07 24.45c-1.33-.27-2.68-.49-4-.68l-.07-24.46c1.36.19 2.71.42 4 .69"/><path class="cls-8" d="M255.22 1.21l.07 24.46c-1.31-.18-2.63-.32-3.95-.42L251.27.79c1.33.1 2.64.25 3.95.42"/><path class="cls-9" d="M251.27.79l.07 24.46c-1.33-.11-2.67-.17-4-.2L247.26.59c1.34 0 2.68.1 4 .2"/><path class="cls-10" d="M247.26.59l.07 24.46h-4.15L243.11.63c1.38-.05 2.77-.07 4.15 0"/><path class="cls-11" d="M243.11.63l.07 24.45c-1.5.06-3 .16-4.49.32L238.62.94c1.49-.15 3-.26 4.49-.31"/><path class="cls-12" d="M238.62.94l.07 24.46c-1.72.17-3.43.41-5.11.72l-.07-24.46c1.68-.3 3.39-.54 5.11-.72"/><path class="cls-13" d="M233.51 1.66l.07 24.46a59.11 59.11 0 0 0-7.31 1.79l-.07-24.46a59.11 59.11 0 0 1 7.31-1.79"/><path class="cls-14" d="M226.2 3.45l.07 24.46a46.94 46.94 0 0 0-9.35 4l-.07-24.41a47 47 0 0 1 9.35-4"/></g></g></g><path class="cls-15" d="M216.85 7.5l.07 24.45L13.11 149.62l-.07-24.45L216.85 7.5z"/><g class="cls-2"><g class="cls-16"><g class="cls-2"><path class="cls-14" d="M13 125.17l.07 24.45c-.47.28-.93.55-1.37.83L11.67 126c.44-.28.9-.56 1.37-.83"/><path class="cls-13" d="M11.67 126l.07 24.45A30.64 30.64 0 0 0 7 154.16l-.11-24.46a30.61 30.61 0 0 1 4.78-3.7"/><path class="cls-12" d="M6.89 129.7L7 154.16a21.83 21.83 0 0 0-2.4 2.67l-.07-24.46a24.5 24.5 0 0 1 2.4-2.67"/><path class="cls-11" d="M4.49 132.37l.07 24.46A18.72 18.72 0 0 0 3 159.26l-.1-24.46a19.43 19.43 0 0 1 1.59-2.43"/><path class="cls-10" d="M2.9 134.8l.1 24.46a16.9 16.9 0 0 0-1 2.31l-.07-24.46a18.06 18.06 0 0 1 1-2.31"/><path class="cls-9" d="M1.86 137.11l.07 24.46a14.67 14.67 0 0 0-.62 2.29l-.07-24.45a14.79 14.79 0 0 1 .62-2.3"/><path class="cls-8" d="M1.24 139.41l.07 24.45a13.27 13.27 0 0 0-.24 2.34L1 141.74a13.16 13.16 0 0 1 .24-2.33"/><path class="cls-7" d="M1 141.74l.07 24.46v.27L1 142v-.28"/></g></g></g><g class="cls-2"><g class="cls-17"><g class="cls-2"><path class="cls-18" d="M12.85 158.63l.07 24.46C5 178.5 1.08 172.49 1.07 166.47L1 142c0 6 4 12 11.85 16.61"/></g></g></g><g class="cls-2"><g class="cls-19"><g class="cls-2"><path class="cls-18" d="M12.85 158.63l.07 24.46C5 178.5 1.08 172.49 1.07 166.47L1 142c0 6 4 12 11.85 16.61"/></g></g></g><g class="cls-2"><g class="cls-20"><g class="cls-2"><path class="cls-4" d="M12.14 159l.07 24.46C4.13 178.8.09 172.64.07 166.47L0 142c0 6.17 4.06 12.33 12.14 17"/></g></g></g><path class="cls-21" d="M669.51 236.98l.07 24.46L274.69 31.95l-.07-24.45 394.89 229.48z"/><g class="cls-2"><g class="cls-22"><g class="cls-2"><path class="cls-4" d="M681.37 253.6l.07 24.45c0-6-4-12-11.86-16.61l-.07-24.44c7.89 4.59 11.84 10.6 11.86 16.62"/></g></g></g><g class="cls-2"><g class="cls-23"><g class="cls-2"><path class="cls-24" d="M681.37 253.6l.07 24.45v.28l-.07-24.46v-.27"/><path class="cls-25" d="M681.37 253.87l.07 24.46a15.21 15.21 0 0 1-.24 2.33l-.07-24.45a15.47 15.47 0 0 0 .24-2.34"/><path class="cls-26" d="M681.13 256.21l.07 24.45a14.83 14.83 0 0 1-.63 2.3l-.07-24.46a14.71 14.71 0 0 0 .63-2.29"/><path class="cls-27" d="M680.5 258.5l.07 24.46a15.77 15.77 0 0 1-1 2.31l-.07-24.46a15.77 15.77 0 0 0 1-2.31"/><path class="cls-28" d="M679.46 260.81l.07 24.46a20.51 20.51 0 0 1-1.53 2.43l-.07-24.46a19 19 0 0 0 1.58-2.43"/><path class="cls-29" d="M677.88 263.24l.12 24.46a24.5 24.5 0 0 1-2.4 2.67l-.07-24.46a22.78 22.78 0 0 0 2.4-2.67"/><path class="cls-30" d="M675.48 265.91l.07 24.46a31.08 31.08 0 0 1-4.78 3.7l-.07-24.45a30.64 30.64 0 0 0 4.78-3.71"/><path class="cls-31" d="M670.7 269.62l.07 24.45c-.45.28-.9.56-1.37.83l-.07-24.45c.47-.27.92-.55 1.37-.83"/></g></g></g><g class="cls-2"><g class="cls-32"><g class="cls-2"><path class="cls-7" d="M682.36 253.6l.07 24.45v.28l-.07-24.45v-.28"/><path class="cls-8" d="M682.36 253.88l.07 24.45a13.73 13.73 0 0 1-.24 2.39l-.07-24.45a13.93 13.93 0 0 0 .24-2.39"/><path class="cls-9" d="M682.12 256.27l.07 24.45a15.58 15.58 0 0 1-.64 2.36l-.07-24.46a15.46 15.46 0 0 0 .64-2.35"/><path class="cls-10" d="M681.48 258.62l.07 24.46a17 17 0 0 1-1.07 2.36l-.07-24.44a16.62 16.62 0 0 0 1.07-2.37"/><path class="cls-11" d="M680.41 261l.07 24.45a18.89 18.89 0 0 1-1.62 2.49l-.07-24.45a20.3 20.3 0 0 0 1.62-2.49"/><path class="cls-12" d="M678.79 263.48l.07 24.45a24.83 24.83 0 0 1-2.46 2.74l-.07-24.46a23.78 23.78 0 0 0 2.46-2.73"/><path class="cls-13" d="M676.33 266.21l.07 24.46a31.19 31.19 0 0 1-4.9 3.79l-.07-24.46a30.64 30.64 0 0 0 4.9-3.8"/><path class="cls-14" d="M671.43 270l.07 24.45c-.45.29-.92.57-1.4.85l-.1-24.44c.48-.28 1-.56 1.4-.85"/></g></g></g><path class="cls-33" d="M407.74 388.12l.07 24.45L12.92 183.09l-.07-24.46 394.89 229.49z"/><path class="cls-34" d="M669.33 270.45l.07 24.45-203.82 117.67-.06-24.45 203.81-117.67z"/><path class="cls-21" d="M407.03 388.53l.07 24.45L12.21 183.5l-.07-24.46 394.89 229.49z"/><path class="cls-15" d="M670.03 270.86l.07 24.45-203.81 117.67-.07-24.45 203.81-117.67z"/><g class="cls-2"><g class="cls-35"><g class="cls-2"><path class="cls-24" d="M427.15 394.4l.06 24.46c-1.36-.19-2.71-.42-4-.69l-.07-24.45c1.33.27 2.68.49 4 .68"/><path class="cls-36" d="M423.1 393.72l.07 24.45a71.48 71.48 0 0 1-4.26-1l-.07-24.45c1.39.39 2.82.73 4.26 1"/><path class="cls-15" d="M418.84 392.7l.07 24.45a51 51 0 0 1-4.94-1.64l-.07-24.45c1.59.62 3.25 1.16 4.94 1.64"/><path class="cls-18" d="M413.9 391.06l.07 24.45a43.15 43.15 0 0 1-6.16-2.94l-.07-24.45a45.42 45.42 0 0 0 6.16 2.94"/></g></g></g><g class="cls-2"><g class="cls-37"><g class="cls-2"><path class="cls-25" d="M431.1 394.83l.07 24.45q-2-.15-4-.42l-.06-24.46c1.3.18 2.62.32 4 .43"/><path class="cls-24" d="M427.15 394.4l.06 24.46c-1.36-.19-2.71-.42-4-.69l-.07-24.45c1.33.27 2.68.49 4 .68"/></g></g></g><g class="cls-2"><g class="cls-38"><g class="cls-2"><path class="cls-25" d="M431.1 394.83l.07 24.45q-2-.15-4-.42l-.06-24.46c1.3.18 2.62.32 4 .43"/></g></g></g><g class="cls-2"><g class="cls-39"><g class="cls-2"><path class="cls-31" d="M465.52 388.12l.06 24.45a46.87 46.87 0 0 1-9.34 4.05l-.07-24.46a46.61 46.61 0 0 0 9.35-4"/><path class="cls-30" d="M456.17 392.16l.07 24.46a58.83 58.83 0 0 1-7.32 1.79l-.06-24.41a61 61 0 0 0 7.31-1.8"/><path class="cls-29" d="M448.86 394l.06 24.45c-1.67.3-3.38.54-5.1.72l-.07-24.45c1.72-.18 3.43-.42 5.11-.72"/><path class="cls-28" d="M443.75 394.68l.07 24.45c-1.49.15-3 .26-4.49.31l-.07-24.44c1.5-.06 3-.16 4.49-.31"/><path class="cls-27" d="M439.26 395l.07 24.45c-1.39.05-2.77.07-4.16 0L435.1 395h4.16"/><path class="cls-26" d="M435.1 395l.07 24.46c-1.34 0-2.67-.1-4-.2l-.07-24.45c1.33.1 2.66.16 4 .19"/><path class="cls-25" d="M431.1 394.83l.07 24.45q-2-.15-4-.42l-.06-24.46c1.3.18 2.62.32 4 .43"/></g></g></g><path class="cls-40" d="M216.15 7.09c16.37-9.45 42.92-9.45 59.18 0l394.89 229.49c16.27 9.45 16.18 24.83-.19 34.28L466.22 388.53c-16.37 9.45-42.92 9.45-59.19 0L12.14 159c-16.26-9.45-16.18-24.83.19-34.28zM669.51 237L274.62 7.5c-15.88-9.23-41.79-9.23-57.77 0L13 125.17c-16 9.23-16.07 24.23-.19 33.46l394.93 229.49c15.88 9.22 41.79 9.23 57.78 0l203.81-117.67c16-9.23 16.06-24.24.18-33.47"/><path class="cls-41" d="M216.85 7.5c16-9.23 41.89-9.23 57.77 0L669.52 237c15.87 9.23 15.79 24.24-.19 33.47L465.52 388.12c-16 9.22-41.9 9.22-57.78 0L12.85 158.63C-3 149.4-2.94 134.39 13 125.17z"/><g class="cls-2"><g class="cls-42"><g class="cls-2"><path class="cls-14" d="M466.22 388.53l.07 24.45a47.83 47.83 0 0 1-9.58 4.14l-.06-24.45a48 48 0 0 0 9.57-4.14"/><path class="cls-13" d="M456.65 392.67l.06 24.45a59.8 59.8 0 0 1-7.49 1.84l-.07-24.45a61.76 61.76 0 0 0 7.5-1.84"/><path class="cls-12" d="M449.15 394.51l.07 24.45c-1.72.31-3.47.56-5.23.74l-.07-24.46c1.76-.18 3.51-.42 5.23-.73"/><path class="cls-11" d="M443.92 395.24l.08 24.46c-1.53.16-3.06.26-4.6.32l-.07-24.46c1.54-.05 3.08-.16 4.6-.32"/><path class="cls-10" d="M439.32 395.56l.07 24.46q-2.13.08-4.26 0l-.07-24.45h4.26"/><path class="cls-9" d="M435.06 395.6l.07 24.45c-1.37 0-2.74-.09-4.1-.2L431 395.4c1.36.1 2.73.17 4.1.2"/><path class="cls-8" d="M431 395.4l.07 24.45c-1.36-.1-2.71-.25-4-.43l-.16-24.42c1.34.19 2.69.33 4 .44"/><path class="cls-7" d="M426.91 395l.07 24.46c-1.4-.19-2.78-.43-4.14-.7l-.07-24.46c1.36.28 2.74.51 4.14.7"/><path class="cls-6" d="M422.77 394.26l.07 24.46c-1.48-.3-2.94-.65-4.37-1.05l-.07-24.45c1.43.4 2.89.74 4.37 1"/><path class="cls-5" d="M418.4 393.22l.07 24.45a50.84 50.84 0 0 1-5.06-1.68l-.07-24.45q2.45.94 5.06 1.68"/><path class="cls-4" d="M413.34 391.54l.07 24.45a44.74 44.74 0 0 1-6.31-3l-.1-24.46a45.87 45.87 0 0 0 6.31 3"/></g></g></g></g><path class="cls-40" d="M523.79 305.17c10.37-6 27.17-6 37.47 0s10.25 15.72-.12 21.71-27.17 6-37.47 0-10.25-15.72.12-21.71zm36.65 21.3c10-5.76 10-15.13.12-20.89s-26.1-5.76-36.07 0-10 15.13-.11 20.89 26.09 5.76 36.06 0"/><path class="cls-43" d="M275.41 24.81l356.63 207.25-234.82 135.57L40.59 160.38 275.41 24.81z"/><path class="cls-44" d="M39.18 160.38L275.41 24l358 208.07-236.2 136.38zM632 232.06L275.41 24.81 40.59 160.38l356.63 207.25L632 232.06"/></g></g></svg>