<?xml version="1.0" encoding="utf-8"?>
<!-- Generator: Adobe Illustrator 23.0.1, SVG Export Plug-In . SVG Version: 6.00 Build 0)  -->
<svg version="1.1" id="Warstwa_1" xmlns="http://www.w3.org/2000/svg" xmlns:xlink="http://www.w3.org/1999/xlink" x="0px" y="0px"
	 viewBox="0 0 360.5 72.5" style="enable-background:new 0 0 360.5 72.5;" xml:space="preserve">
<style type="text/css">
	.st0{fill:#1F2427;}
</style>
<title>Warstwa 1</title>
<g>
	<g id="Warstwa_1-2">
		<path class="st0" d="M0,0.7h12.1v71H0V0.7z M5.7,32.6h12.5c0.9,0,1.8-0.2,2.5-0.7c0.7-0.5,1.3-1.2,1.7-2c0.4-1,0.6-2.1,0.6-3.1
			v-8.4c0-1.1-0.2-2.2-0.6-3.3c-0.3-0.8-0.9-1.6-1.6-2.1c-0.8-0.5-1.7-0.7-2.6-0.7H5.7V0.7h12.9c3.1-0.1,6.2,0.6,9,1.9
			C30,3.8,32,5.7,33.3,8c1.4,2.7,2.1,5.6,2,8.6v12c0.1,2.9-0.6,5.8-2,8.4c-1.3,2.3-3.3,4.2-5.7,5.3c-2.8,1.3-5.9,1.9-9,1.8H5.7V32.6
			z"/>
		<path class="st0" d="M43.7,0.7h11.9v71H43.7V0.7z M49.1,30.1h12.8c0.9,0,1.9-0.2,2.7-0.6c0.7-0.3,1.3-0.9,1.7-1.6
			c0.4-0.8,0.6-1.6,0.6-2.5v-7.9c0-1-0.2-1.9-0.6-2.8c-0.4-0.8-1-1.4-1.8-1.8c-0.8-0.4-1.8-0.6-2.7-0.6H49.1V0.7h12.1
			c3.4-0.1,6.7,0.6,9.8,1.9c2.6,1.2,4.8,3.1,6.2,5.5c1.5,2.7,2.2,5.7,2.1,8.7v8.3c0.1,3.1-0.6,6.2-2.1,9c-1.4,2.5-3.6,4.5-6.3,5.7
			c-3.1,1.4-6.4,2-9.8,2H49.1V30.1z M59,39.5l11.1-2.3l11.3,34.5h-13L59,39.5z"/>
		<path class="st0" d="M97.2,70.5c-2.6-1.2-4.8-3.2-6.2-5.7c-1.5-2.8-2.2-5.9-2.1-9V16.7c-0.1-3.1,0.7-6.2,2.1-9
			c1.4-2.5,3.6-4.5,6.2-5.7c6.3-2.6,13.3-2.6,19.6,0c2.6,1.2,4.8,3.2,6.2,5.7c1.5,2.8,2.2,5.9,2.2,9v39.1c0.1,3.1-0.7,6.2-2.2,9
			c-1.4,2.5-3.6,4.5-6.2,5.7C110.6,73.1,103.5,73.1,97.2,70.5L97.2,70.5z M110.2,59.6c0.9-0.5,1.6-1.2,2-2.1c0.5-1,0.7-2.2,0.7-3.3
			v-36c0-1.1-0.2-2.2-0.7-3.3c-0.4-0.9-1.1-1.6-2-2.1c-1-0.5-2.1-0.8-3.2-0.7c-1.1,0-2.2,0.2-3.2,0.7c-0.9,0.5-1.6,1.2-2,2.1
			c-0.5,1-0.7,2.1-0.7,3.3v36c0,1.1,0.2,2.3,0.7,3.3c0.4,0.9,1.1,1.6,2,2.1c1,0.5,2.1,0.8,3.2,0.7C108.2,60.4,109.2,60.1,110.2,59.6
			L110.2,59.6z"/>
		<path class="st0" d="M134.3,70.6c-2.5-1.2-4.7-3.1-6.3-5.4l8.1-8.4c0.7,1,1.7,1.9,2.7,2.6c0.9,0.6,2,0.9,3.1,0.8
			c1.4,0.1,2.8-0.4,3.8-1.3c0.9-1,1.4-2.4,1.3-3.8V0.7h12.1v55.8c0.1,3-0.6,5.9-1.9,8.6c-1.3,2.3-3.2,4.2-5.6,5.4
			c-2.8,1.3-5.8,2-8.8,1.9C139.8,72.5,136.9,71.8,134.3,70.6z"/>
		<path class="st0" d="M167.8,0.7h12.1v71h-12.1V0.7z M173.2,0.7h26.2v11.8h-26.2V0.7z M173.2,30.6h23.7v11.8h-23.7V30.6z
			 M173.2,59.9h26.2v11.8h-26.2V59.9z"/>
		<path class="st0" d="M213.5,70.3c-2.5-1.4-4.6-3.6-5.8-6.2c-1.4-3.1-2.1-6.4-2-9.8V18.1c-0.1-3.4,0.6-6.7,2-9.8
			c1.3-2.6,3.3-4.8,5.8-6.2c5.8-2.8,12.6-2.8,18.4,0c2.5,1.4,4.6,3.6,5.8,6.2c1.4,3.1,2.1,6.4,2,9.8v5.7h-12.3v-5.7
			c0-1.1-0.2-2.1-0.5-3.1c-0.3-0.8-0.9-1.5-1.6-2c-0.8-0.5-1.7-0.7-2.6-0.7c-0.9,0-1.8,0.2-2.5,0.7c-0.7,0.5-1.3,1.2-1.6,2
			c-0.4,1-0.6,2.1-0.6,3.1v36.3c0,1.1,0.2,2.1,0.6,3.1c0.3,0.8,0.9,1.5,1.6,2c0.8,0.5,1.6,0.7,2.5,0.7c0.9,0,1.8-0.2,2.6-0.7
			c0.7-0.5,1.3-1.2,1.6-2c0.4-1,0.6-2.1,0.5-3.1v-5.7h12.3v5.7c0.1,3.4-0.6,6.7-2,9.8c-1.3,2.6-3.3,4.8-5.8,6.2
			C226.1,73.2,219.3,73.2,213.5,70.3L213.5,70.3z"/>
		<path class="st0" d="M242.5,0.7h35.5v11.6h-35.5V0.7z M254.2,6.7h12.1v65h-12.1V6.7z"/>
		<path class="st0" d="M333.3,45.7v10h-37.1v-10H333.3z M335,16.2v10h-37.1v-10H335z M307,0.8h9.6l-8.6,71h-9.7L307,0.8z M323.4,0.8
			h9.6l-8.6,71h-9.6L323.4,0.8z"/>
		<path class="st0" d="M360.6,71.7h-12.2V14.5l-9,4.3V5.7l8.8-5h12.3V71.7z"/>
	</g>
</g>
</svg>
