<svg xmlns="http://www.w3.org/2000/svg" viewBox="0 0 373.58 72.46"><title>Warstwa 1</title><g id="Warstwa_2" data-name="Warstwa 2"><g id="Warstwa_1-2" data-name="Warstwa 1"><path d="M4.35,14.5H16.46v71H4.35ZM10,46.34H22.56a4.6,4.6,0,0,0,2.54-.69,4.42,4.42,0,0,0,1.66-2,7.65,7.65,0,0,0,.58-3.12V32.18a8.47,8.47,0,0,0-.56-3.27,4.41,4.41,0,0,0-1.63-2.08,4.63,4.63,0,0,0-2.59-.71H10V14.5H22.9a20.14,20.14,0,0,1,9,1.86,12.77,12.77,0,0,1,5.72,5.44,17.82,17.82,0,0,1,2,8.62v12a16.85,16.85,0,0,1-2,8.43,12.94,12.94,0,0,1-5.74,5.32,20.32,20.32,0,0,1-9,1.83H10Z" transform="translate(-4.35 -13.77)"/><path d="M48.05,14.45H59.91V85.5H48.05Zm5.42,29.4H66.26A6.18,6.18,0,0,0,69,43.29a3.88,3.88,0,0,0,1.73-1.62,5,5,0,0,0,.59-2.51V31.25a6.16,6.16,0,0,0-.59-2.78A4,4,0,0,0,69,26.68a5.79,5.79,0,0,0-2.71-.61H53.47V14.45H65.53a23.44,23.44,0,0,1,9.84,1.88,13.74,13.74,0,0,1,6.22,5.52,16.88,16.88,0,0,1,2.15,8.72v8.3a17.71,17.71,0,0,1-2.15,9,13.9,13.9,0,0,1-6.25,5.69,22.64,22.64,0,0,1-9.81,1.95H53.47Zm9.86,9.42L74.41,51,85.74,85.5h-13Z" transform="translate(-4.35 -13.77)"/><path d="M101.59,84.25a14,14,0,0,1-6.23-5.71,17.8,17.8,0,0,1-2.15-9V30.47a17.91,17.91,0,0,1,2.15-9,13.85,13.85,0,0,1,6.23-5.72,22.49,22.49,0,0,1,9.79-2,22.52,22.52,0,0,1,9.79,2,13.87,13.87,0,0,1,6.22,5.72,17.91,17.91,0,0,1,2.15,9V69.53a17.8,17.8,0,0,1-2.15,9,14,14,0,0,1-6.22,5.71,22.23,22.23,0,0,1-9.79,2A22.2,22.2,0,0,1,101.59,84.25Zm13-10.86a4.77,4.77,0,0,0,2-2.1,7.31,7.31,0,0,0,.69-3.32v-36a7.17,7.17,0,0,0-.69-3.27,4.77,4.77,0,0,0-2-2.1,6.6,6.6,0,0,0-3.2-.73,6.44,6.44,0,0,0-3.18.73,4.83,4.83,0,0,0-2,2.1,7.31,7.31,0,0,0-.68,3.27V68a7.44,7.44,0,0,0,.68,3.32,4.83,4.83,0,0,0,2,2.1,6.44,6.44,0,0,0,3.18.73A6.6,6.6,0,0,0,114.58,73.39Z" transform="translate(-4.35 -13.77)"/><path d="M138.67,84.33a16.5,16.5,0,0,1-6.3-5.38l8.06-8.39a9.44,9.44,0,0,0,2.73,2.56,6.11,6.11,0,0,0,3.13.85,5.09,5.09,0,0,0,3.78-1.31,5.19,5.19,0,0,0,1.3-3.81V14.5h12.11V70.31a17.91,17.91,0,0,1-1.93,8.6A12.94,12.94,0,0,1,156,84.35a19.2,19.2,0,0,1-8.84,1.88A18.82,18.82,0,0,1,138.67,84.33Z" transform="translate(-4.35 -13.77)"/><path d="M172.17,14.5h12.11v71H172.17Zm5.37,0h26.17V26.32H177.54Zm0,29.84h23.73V56.1H177.54Zm0,29.34h26.17V85.5H177.54Z" transform="translate(-4.35 -13.77)"/><path d="M217.82,84.11A14.12,14.12,0,0,1,212,77.93a21.66,21.66,0,0,1-2-9.77V31.84a21.66,21.66,0,0,1,2-9.77,14.12,14.12,0,0,1,5.83-6.18,21,21,0,0,1,18.39,0,14,14,0,0,1,5.83,6.2,22,22,0,0,1,2,9.79V37.6H231.79V31.88a8.21,8.21,0,0,0-.54-3.12,4.25,4.25,0,0,0-1.64-2A4.71,4.71,0,0,0,227,26a4.62,4.62,0,0,0-2.54.68,4.29,4.29,0,0,0-1.63,2,7.85,7.85,0,0,0-.56,3.13V68.16a7.72,7.72,0,0,0,.56,3.11,4.26,4.26,0,0,0,1.63,2,4.62,4.62,0,0,0,2.54.69,4.8,4.8,0,0,0,2.64-.69,4.16,4.16,0,0,0,1.61-2,8.25,8.25,0,0,0,.54-3.16V62.4H244v5.71a22,22,0,0,1-2,9.8,14,14,0,0,1-5.83,6.2,21,21,0,0,1-18.39,0Z" transform="translate(-4.35 -13.77)"/><path d="M246.88,14.5h35.54V26.12H246.88Zm11.71,6H270.7v65H258.59Z" transform="translate(-4.35 -13.77)"/><path d="M337.65,59.47v10H300.54v-10ZM339.31,30V40H302.2V30Zm-28-15.48h9.62l-8.6,71h-9.66Zm16.45,0h9.62l-8.64,71h-9.57Z" transform="translate(-4.35 -13.77)"/><path d="M352.27,84.33a13.32,13.32,0,0,1-5.79-5.52,17.63,17.63,0,0,1-2-8.64V65.82h12.21v4.1a4.83,4.83,0,0,0,.54,2.35,3.51,3.51,0,0,0,1.58,1.49,5.72,5.72,0,0,0,2.52.51,4.39,4.39,0,0,0,3.29-1.22,4.69,4.69,0,0,0,1.2-3.42V59.52a5.28,5.28,0,0,0-1.22-3.71,4.36,4.36,0,0,0-3.37-1.32h-3.86V42.58h3.86a3,3,0,0,0,2.52-1.17,5.35,5.35,0,0,0,.9-3.32V29.3a3.71,3.71,0,0,0-.88-2.62,3.18,3.18,0,0,0-2.44-.95,4,4,0,0,0-1.93.44,2.89,2.89,0,0,0-1.22,1.25,4.19,4.19,0,0,0-.42,2v4.84H345.61V29.39A17.59,17.59,0,0,1,347.49,21a12.44,12.44,0,0,1,5.44-5.35,18.63,18.63,0,0,1,8.59-1.83q7.28,0,11.26,4.08t4,11.5v9.47A9,9,0,0,1,375,44.07a15.57,15.57,0,0,1-5,4.37,11.68,11.68,0,0,1,5.86,4,10.37,10.37,0,0,1,2.1,6.5V69.68a19.15,19.15,0,0,1-1.95,9,13,13,0,0,1-5.69,5.66,19.27,19.27,0,0,1-9,1.93A19.93,19.93,0,0,1,352.27,84.33Z" transform="translate(-4.35 -13.77)"/></g></g></svg>